HIERARCHY
ROOT hip
{
  OFFSET 0 0 0
  CHANNELS 6 Xposition Yposition Zposition Zrotation Yrotation Xrotation
  JOINT abdomen
  {
    OFFSET 0 20.6881 -0.73152
    CHANNELS 3 Zrotation Xrotation Yrotation
    JOINT chest
    {
      OFFSET 0 11.7043 -0.48768
      CHANNELS 3 Zrotation Xrotation Yrotation
      JOINT neck
      {
        OFFSET 0 22.1894 -2.19456
        CHANNELS 3 Zrotation Xrotation Yrotation
        JOINT head
        {
          OFFSET -0.24384 7.07133 1.2192
          CHANNELS 3 Zrotation Xrotation Yrotation
          JOINT leftEye
          {
            OFFSET 4.14528 8.04674 8.04672
            CHANNELS 3 Zrotation Xrotation Yrotation
            End Site
            {
              OFFSET 1 0 0
            }
          }
          JOINT rightEye
          {
            OFFSET -3.6576 8.04674 8.04672
            CHANNELS 3 Zrotation Xrotation Yrotation
            End Site
            {
              OFFSET 1 0 0
            }
          }
        }
      }
      JOINT rCollar
      {
        OFFSET -2.68224 19.2634 -4.8768
        CHANNELS 3 Zrotation Xrotation Yrotation
        JOINT rShldr
        {
          OFFSET -8.77824 -1.95073 1.46304
          CHANNELS 3 Zrotation Xrotation Yrotation
          JOINT rForeArm
          {
            OFFSET -28.1742 -1.7115 0.48768
            CHANNELS 3 Zrotation Xrotation Yrotation
            JOINT rHand
            {
              OFFSET -22.5879 0.773209 7.07136
              CHANNELS 3 Zrotation Xrotation Yrotation
              JOINT rThumb1
              {
                OFFSET -1.2192 -0.487915 3.41376
                CHANNELS 3 Zrotation Xrotation Yrotation
                JOINT rThumb2
                {
                  OFFSET -3.37035 -0.52449 3.41376
                  CHANNELS 3 Zrotation Xrotation Yrotation
                  End Site
                  {
                    OFFSET -1.78271 -1.18214 1.43049
                  }
                }
              }
              JOINT rIndex1
              {
                OFFSET -7.75947 0.938293 5.60832
                CHANNELS 3 Zrotation Xrotation Yrotation
                JOINT rIndex2
                {
                  OFFSET -2.54057 -0.884171 1.56538
                  CHANNELS 3 Zrotation Xrotation Yrotation
                  End Site
                  {
                    OFFSET -1.62519 -0.234802 1.16502
                  }
                }
              }
              JOINT rMid1
              {
                OFFSET -8.24714 1.18213 3.41376
                CHANNELS 3 Zrotation Xrotation Yrotation
                JOINT rMid2
                {
                  OFFSET -3.10165 -0.590103 1.0647
                  CHANNELS 3 Zrotation Xrotation Yrotation
                  End Site
                  {
                    OFFSET -2.48547 -0.328903 0.83742
                  }
                }
              }
              JOINT rRing1
              {
                OFFSET -8.82822 0.546677 1.51678
                CHANNELS 3 Zrotation Xrotation Yrotation
                JOINT rRing2
                {
                  OFFSET -2.60934 -0.819778 -0.0198488
                  CHANNELS 3 Zrotation Xrotation Yrotation
                  End Site
                  {
                    OFFSET -2.33842 -0.294052 0.168128
                  }
                }
              }
              JOINT rPinky1
              {
                OFFSET -8.27202 -0.0477905 -0.4584
                CHANNELS 3 Zrotation Xrotation Yrotation
                JOINT rPinky2
                {
                  OFFSET -1.82734 -0.647385 -0.700984
                  CHANNELS 3 Zrotation Xrotation Yrotation
                  End Site
                  {
                    OFFSET -1.69225 -0.51767 -0.607171
                  }
                }
              }
            }
          }
        }
      }
      JOINT lCollar
      {
        OFFSET 2.68224 19.2634 -4.8768
        CHANNELS 3 Zrotation Xrotation Yrotation
        JOINT lShldr
        {
          OFFSET 8.77824 -1.95073 1.46304
          CHANNELS 3 Zrotation Xrotation Yrotation
          JOINT lForeArm
          {
            OFFSET 28.1742 -1.7115 0.48768
            CHANNELS 3 Zrotation Xrotation Yrotation
            JOINT lHand
            {
              OFFSET 22.5879 0.773209 7.07136
              CHANNELS 3 Zrotation Xrotation Yrotation
              JOINT lThumb1
              {
                OFFSET 1.2192 -0.487915 3.41376
                CHANNELS 3 Zrotation Xrotation Yrotation
                JOINT lThumb2
                {
                  OFFSET 3.37035 -0.52449 3.41376
                  CHANNELS 3 Zrotation Xrotation Yrotation
                  End Site
                  {
                    OFFSET 1.78271 -1.18214 1.43049
                  }
                }
              }
              JOINT lIndex1
              {
                OFFSET 7.75947 0.938293 5.60832
                CHANNELS 3 Zrotation Xrotation Yrotation
                JOINT lIndex2
                {
                  OFFSET 2.54057 -0.884171 1.56538
                  CHANNELS 3 Zrotation Xrotation Yrotation
                  End Site
                  {
                    OFFSET 1.62519 -0.234802 1.16502
                  }
                }
              }
              JOINT lMid1
              {
                OFFSET 8.24714 1.18213 3.41376
                CHANNELS 3 Zrotation Xrotation Yrotation
                JOINT lMid2
                {
                  OFFSET 3.10165 -0.590103 1.0647
                  CHANNELS 3 Zrotation Xrotation Yrotation
                  End Site
                  {
                    OFFSET 2.48547 -0.328903 0.83742
                  }
                }
              }
              JOINT lRing1
              {
                OFFSET 8.82822 0.546677 1.51678
                CHANNELS 3 Zrotation Xrotation Yrotation
                JOINT lRing2
                {
                  OFFSET 2.60934 -0.819778 -0.0198488
                  CHANNELS 3 Zrotation Xrotation Yrotation
                  End Site
                  {
                    OFFSET 2.33842 -0.294052 0.168128
                  }
                }
              }
              JOINT lPinky1
              {
                OFFSET 8.27202 -0.0477905 -0.4584
                CHANNELS 3 Zrotation Xrotation Yrotation
                JOINT lPinky2
                {
                  OFFSET 1.82734 -0.647385 -0.700984
                  CHANNELS 3 Zrotation Xrotation Yrotation
                  End Site
                  {
                    OFFSET 1.69225 -0.51767 -0.607171
                  }
                }
              }
            }
          }
        }
      }
    }
  }
  JOINT rButtock
  {
    OFFSET -8.77824 4.35084 1.2192
    CHANNELS 3 Zrotation Xrotation Yrotation
    JOINT rThigh
    {
      OFFSET 0 -1.70687 -2.19456
      CHANNELS 3 Zrotation Xrotation Yrotation
      JOINT rShin
      {
        OFFSET 0 -36.8199 0.73152
        CHANNELS 3 Zrotation Xrotation Yrotation
        JOINT rFoot
        {
          OFFSET 0.73152 -45.1104 -5.12064
          CHANNELS 3 Zrotation Xrotation Yrotation
          End Site
          {
            OFFSET -1.1221 -3.69964 12.103
          }
        }
      }
    }
  }
  JOINT lButtock
  {
    OFFSET 8.77824 4.35084 1.2192
    CHANNELS 3 Zrotation Xrotation Yrotation
    JOINT lThigh
    {
      OFFSET 0 -1.70687 -2.19456
      CHANNELS 3 Zrotation Xrotation Yrotation
      JOINT lShin
      {
        OFFSET 0 -36.8199 0.73152
        CHANNELS 3 Zrotation Xrotation Yrotation
        JOINT lFoot
        {
          OFFSET -0.73152 -45.1104 -5.12064
          CHANNELS 3 Zrotation Xrotation Yrotation
          End Site
          {
            OFFSET 1.1221 -3.69964 12.103
          }
        }
      }
    }
  }
}
MOTION
Frames:	4
Frame Time:	0.03333
-0.0028934329748153687 -2.422420121729374 -0.012691784650087357 -4.33250093460083 -0.34420356154441833 6.2306809425354 -2.389028310775757 14.083499908447266 3.8370394706726074 2.7541086673736572 -9.199738502502441 1.2331292629241943 -5.257800102233887 15.090530395507812 -3.7235987186431885 9.088248252868652 -24.185945510864258 -5.465011119842529 0.2851247489452362 0.037970926612615585 -0.19338493049144745 -0.12439209222793579 0.04853193461894989 -0.1391063928604126 0.062870092689991 -0.07132023572921753 0.10837538540363312 47.6214714050293 37.301734924316406 16.677459716796875 -26.880775451660156 -26.133981704711914 60.96645736694336 -0.05641829967498779 -8.988560676574707 -1.2784969806671143 -0.07778104394674301 -0.014186312444508076 0.11672596633434296 -0.10083181411027908 -0.07083193212747574 0.016596868634223938 0.06375345587730408 0.08559245616197586 0.20716135203838348 7.726393222808838 5.499857425689697 0.7091687321662903 -0.052673883736133575 -0.03699991852045059 0.04433433338999748 2.738375186920166 0.8983142375946045 0.018340224400162697 0.005239656660705805 -0.06207456439733505 0.03875674307346344 10.121264457702637 0.8078364133834839 -0.060915350914001465 0.034461233764886856 0.03161289542913437 -0.06468553096055984 2.1016769409179688 -0.7637341022491455 -0.22070935368537903 -0.1727220118045807 -0.03753602132201195 -0.14134818315505981 -55.30445098876953 40.59455871582031 -26.0045223236084 26.72028160095215 -25.118816375732422 -59.13938903808594 -0.05168771371245384 -12.04421615600586 1.5203897953033447 0.15009117126464844 0.006992412265390158 0.007008239161223173 -0.17463764548301697 0.1428808569908142 -0.20457860827445984 -0.07625587284564972 0.16012221574783325 0.1267559975385666 -7.7423996925354 5.533632278442383 -0.3874704837799072 -0.038036879152059555 -0.12619665265083313 0.03042043000459671 -2.8462677001953125 0.7831013798713684 -0.11894480139017105 0.08434297144412994 0.00026401045033708215 0.0467793345451355 -10.14163589477539 0.8025320172309875 0.12732264399528503 -0.12474457919597626 -0.10971446335315704 0.09483940154314041 -2.317345142364502 -0.6541554927825928 0.14082840085029602 -0.3119763731956482 0.26205262541770935 -0.08039164543151855 -23.502737045288086 -39.57036209106445 -19.51525115966797 -1.7306268215179443 63.72074508666992 2.6835098266601562 -3.53078556060791 -10.57539176940918 -9.476200103759766 -0.04670317843556404 0.044301699846982956 0.1596924364566803 27.75221061706543 -36.95479202270508 20.820871353149414 1.3557548522949219 63.63002395629883 -2.332825183868408 4.371471881866455 -10.529892921447754 13.997978210449219
-0.004506297409534454 -2.4271417409181595 -0.026758573949337006 -4.213281154632568 -0.510344386100769 6.1433916091918945 -2.244964361190796 14.13409423828125 3.8531746864318848 2.7809770107269287 -9.19253921508789 1.281325340270996 -4.9923014640808105 15.109289169311523 -3.6839425563812256 9.0438814163208 -24.274391174316406 -5.160788536071777 0.3422137498855591 0.06847180426120758 -0.38235029578208923 -0.1962631642818451 -0.007421055343002081 -0.060485731810331345 -0.025438090786337852 0.007445275317877531 -0.01874339021742344 47.286861419677734 36.982547760009766 16.884885787963867 -26.89776611328125 -26.06122589111328 60.94749450683594 -0.1426481157541275 -8.809478759765625 -1.245789885520935 -0.16963422298431396 -0.05290699005126953 0.10285352170467377 -0.16655491292476654 -0.07738659530878067 -0.0037156168837100267 0.12758085131645203 -0.032905954867601395 0.19441325962543488 7.656696319580078 5.667847633361816 0.6943022012710571 0.06833262741565704 0.025261130183935165 -0.004821503069251776 2.6679277420043945 0.9198521375656128 -0.008835608139634132 -0.09255358576774597 -0.08173319697380066 0.14252467453479767 10.14671516418457 0.7600191831588745 0.10028540343046188 0.04320555552840233 -0.06376205384731293 -0.05872398242354393 2.149876356124878 -0.9246221780776978 -0.29077228903770447 -0.21640700101852417 0.0008820775547064841 -0.15181732177734375 -54.811153411865234 40.946048736572266 -26.31555938720703 26.600685119628906 -25.181978225708008 -59.51435852050781 -0.07887963950634003 -12.186151504516602 1.4978415966033936 0.14820262789726257 0.08136805891990662 0.12806591391563416 -0.12455960363149643 0.2275155931711197 -0.18122965097427368 -0.21298660337924957 0.18639250099658966 0.12747988104820251 -7.860692024230957 5.627791881561279 -0.2529826760292053 0.05939516797661781 -0.07095520198345184 0.14234350621700287 -2.8536105155944824 0.7648402452468872 -0.1723247915506363 0.11135104298591614 0.14968177676200867 -0.10049118101596832 -10.239631652832031 0.7202640771865845 0.16391977667808533 -0.1713329255580902 -0.1756730079650879 0.10801196098327637 -2.307832956314087 -0.5647283792495728 0.18085125088691711 -0.2911873161792755 0.3663022816181183 -0.08172021061182022 -23.516101837158203 -40.175716400146484 -19.43242835998535 -1.8451441526412964 63.70808029174805 2.7194292545318604 -3.691032648086548 -10.365880012512207 -9.521594047546387 -0.0805777907371521 0.009644524194300175 0.17076703906059265 27.521202087402344 -36.355167388916016 20.70525360107422 1.7499101161956787 63.61717224121094 -2.612826108932495 4.4512038230896 -10.4204740524292 14.312638282775879
-0.00712517648935318 -2.325325459241867 -0.018170010298490524 -35.95088195800781 39.88389587402344 -28.87082290649414 -1.0745251178741455 19.388887405395508 7.500146865844727 0.7410166263580322 -10.6187105178833 2.1522014141082764 -2.5512616634368896 14.64942455291748 1.985621690750122 7.021193981170654 -21.594144821166992 5.189662456512451 0.7855949997901917 0.2802349925041199 -0.19611285626888275 -0.34166422486305237 -0.038658224046230316 0.25030702352523804 0.12875524163246155 0.14888998866081238 -0.29140588641166687 41.402809143066406 41.332298278808594 19.345794677734375 -28.172069549560547 -34.48300552368164 73.55281066894531 0.1547924131155014 -7.487314224243164 -1.2808518409729004 -0.18651524186134338 -0.05448891595005989 0.0976814478635788 0.2866959869861603 0.0012525663478299975 0.3933735489845276 0.48687687516212463 -0.04922301694750786 0.27840176224708557 7.610326290130615 5.701369762420654 0.9109817743301392 -0.0815010517835617 -0.14941982924938202 0.0610334612429142 2.51332426071167 0.9971186518669128 -0.10859408974647522 0.02811576798558235 -0.2978486716747284 0.3782988488674164 10.792106628417969 1.0379801988601685 -0.36721837520599365 -0.38844043016433716 -0.7198259830474854 -0.06047050282359123 2.4779629707336426 -0.519734799861908 -0.10559651255607605 -0.23721197247505188 -0.2287643402814865 -0.30755937099456787 -49.26848602294922 38.4088134765625 -27.94886589050293 27.915924072265625 -39.65004348754883 -82.86571502685547 0.446336030960083 -28.201486587524414 3.862515687942505 0.46722206473350525 0.026546863839030266 -0.10903589427471161 -0.2975851595401764 0.46075439453125 0.09545867890119553 -0.20291537046432495 0.43850353360176086 0.17274925112724304 -7.731863498687744 5.946840286254883 -0.5671311616897583 -0.4169706702232361 -0.20002596080303192 -0.18954387307167053 -2.85044002532959 0.7492345571517944 -0.12582795321941376 0.7522050738334656 -0.08973101526498795 0.21393370628356934 -10.204983711242676 0.6387083530426025 -0.08456549793481827 -0.24961741268634796 0.0009720874368213117 0.26575231552124023 -2.4675960540771484 -0.6440039277076721 0.21776874363422394 -0.1691642850637436 0.03670467436313629 0.17661884427070618 -38.358524322509766 -44.46220397949219 -34.286930084228516 -11.453524589538574 81.94386291503906 12.102917671203613 -2.8260974884033203 -17.50905418395996 -6.3500895500183105 -0.3057596683502197 0.020583944395184517 0.47665977478027344 48.80796432495117 -46.42284393310547 37.86920928955078 3.324190139770508 80.08717346191406 -4.378273010253906 1.8900511264801025 -13.999336242675781 5.153625965118408
-0.01566261053085327 -2.2279031574726105 -0.004473887383937836 -65.44976806640625 59.146244049072266 -58.907535552978516 -1.268007755279541 21.59103012084961 11.57015323638916 -1.91872239112854 -11.999964714050293 3.4903905391693115 0.033037811517715454 13.28244686126709 7.86900520324707 2.552795171737671 -18.507396697998047 16.5983943939209 1.0383299589157104 0.3978639543056488 -0.11458366364240646 -0.001629632548429072 -0.053721778094768524 -0.28592297434806824 0.36779820919036865 0.3249598741531372 0.3590410351753235 32.7931022644043 50.056907653808594 26.003585815429688 -27.480009078979492 -37.99444580078125 80.29761505126953 0.22690482437610626 -5.560173034667969 -0.8615682721138 -0.10943383723497391 0.3832363784313202 0.346604585647583 0.015550604090094566 0.09033183753490448 0.7603774070739746 0.4336053729057312 -0.004257929045706987 0.21706897020339966 7.307672023773193 5.785135746002197 1.4142541885375977 -0.4580651819705963 -0.4303573966026306 -0.3131405711174011 2.8466076850891113 0.8140982389450073 -0.12661170959472656 -0.05203220620751381 -0.5904938578605652 0.3361983299255371 10.818144798278809 1.2427589893341064 -0.2996465563774109 -0.4182971119880676 -0.6784683465957642 -0.12012502551078796 2.6034202575683594 -0.6911471486091614 -0.07491800934076309 -0.5471637845039368 -0.47754332423210144 -0.3759597837924957 -46.390804290771484 31.734729766845703 -27.187511444091797 26.09884262084961 -45.80294418334961 -93.89701843261719 0.6905934810638428 -32.12385940551758 4.478939056396484 0.41859006881713867 0.16936206817626953 -0.25091904401779175 -0.3134136497974396 0.4438644051551819 -0.24214257299900055 -0.023853357881307602 0.11927558481693268 0.4954284429550171 -8.156210899353027 6.008517742156982 -0.9056174159049988 -0.2542650103569031 -0.12876437604427338 -0.36584407091140747 -2.936284303665161 0.8725788593292236 0.06364885717630386 0.7952409386634827 -0.022790178656578064 0.38849982619285583 -9.894963264465332 0.57632976770401 0.1521679162979126 -0.5564828515052795 -0.271662175655365 0.01750633865594864 -2.6738193035125732 -0.6168468594551086 0.27720123529434204 -0.18095843493938446 0.21273617446422577 0.03568220138549805 -48.34501647949219 -43.320289611816406 -38.9447021484375 -35.59770202636719 87.5797348022461 36.87232208251953 -3.513265609741211 -22.913148880004883 -7.244129657745361 -0.3075006902217865 -0.39525800943374634 0.9668770432472229 66.57259368896484 -47.914512634277344 50.877777099609375 14.052055358886719 87.01783752441406 -15.503175735473633 -0.12476319074630737 -17.812801361083984 0.2579144537448883
